<mxfile host="app.diagrams.net" agent="Mozilla/5.0 (Windows NT 10.0; Win64; x64) AppleWebKit/537.36 (KHTML, like Gecko) Chrome/129.0.0.0 Safari/537.36" version="24.7.17">
  <diagram name="Page-1" id="ywJox2s-60kpf8rXiAvu">
    <mxGraphModel dx="794" dy="446" grid="1" gridSize="10" guides="1" tooltips="1" connect="1" arrows="1" fold="1" page="1" pageScale="1" pageWidth="850" pageHeight="1100" math="0" shadow="0">
      <root>
        <mxCell id="0" />
        <mxCell id="1" parent="0" />
        <mxCell id="crwWEDbHYnF9CgbV07Z6-3" style="edgeStyle=orthogonalEdgeStyle;rounded=0;orthogonalLoop=1;jettySize=auto;html=1;endArrow=ERzeroToMany;endFill=0;" parent="1" source="crwWEDbHYnF9CgbV07Z6-1" target="crwWEDbHYnF9CgbV07Z6-4" edge="1">
          <mxGeometry relative="1" as="geometry" />
        </mxCell>
        <mxCell id="crwWEDbHYnF9CgbV07Z6-1" value="Pelanggan" style="rounded=0;whiteSpace=wrap;html=1;" parent="1" vertex="1">
          <mxGeometry x="350" y="10" width="120" height="60" as="geometry" />
        </mxCell>
        <mxCell id="crwWEDbHYnF9CgbV07Z6-2" value="Pesanan" style="rounded=0;whiteSpace=wrap;html=1;" parent="1" vertex="1">
          <mxGeometry x="350" y="200" width="120" height="60" as="geometry" />
        </mxCell>
        <mxCell id="crwWEDbHYnF9CgbV07Z6-4" value="" style="shape=partialRectangle;whiteSpace=wrap;html=1;top=0;bottom=0;fillColor=none;" parent="1" vertex="1">
          <mxGeometry x="350" y="200" width="120" height="60" as="geometry" />
        </mxCell>
        <mxCell id="crwWEDbHYnF9CgbV07Z6-5" value="" style="shape=partialRectangle;whiteSpace=wrap;html=1;top=0;bottom=0;fillColor=none;rotation=90;" parent="1" vertex="1">
          <mxGeometry x="406.69" y="84.31" width="10" height="28.62" as="geometry" />
        </mxCell>
        <mxCell id="crwWEDbHYnF9CgbV07Z6-28" style="edgeStyle=orthogonalEdgeStyle;rounded=0;orthogonalLoop=1;jettySize=auto;html=1;endArrow=ERzeroToMany;endFill=0;" parent="1" source="crwWEDbHYnF9CgbV07Z6-12" target="crwWEDbHYnF9CgbV07Z6-27" edge="1">
          <mxGeometry relative="1" as="geometry" />
        </mxCell>
        <mxCell id="crwWEDbHYnF9CgbV07Z6-12" value="Produk" style="rounded=0;whiteSpace=wrap;html=1;" parent="1" vertex="1">
          <mxGeometry x="200" y="390" width="120" height="60" as="geometry" />
        </mxCell>
        <mxCell id="crwWEDbHYnF9CgbV07Z6-13" value="Faktur" style="rounded=0;whiteSpace=wrap;html=1;" parent="1" vertex="1">
          <mxGeometry x="500" y="390" width="120" height="60" as="geometry" />
        </mxCell>
        <mxCell id="crwWEDbHYnF9CgbV07Z6-14" value="" style="endArrow=ERzeroToMany;html=1;rounded=0;exitX=0.25;exitY=1;exitDx=0;exitDy=0;entryX=0.5;entryY=0;entryDx=0;entryDy=0;endFill=0;" parent="1" source="crwWEDbHYnF9CgbV07Z6-4" target="crwWEDbHYnF9CgbV07Z6-12" edge="1">
          <mxGeometry width="50" height="50" relative="1" as="geometry">
            <mxPoint x="380" y="270" as="sourcePoint" />
            <mxPoint x="430" y="220" as="targetPoint" />
            <Array as="points">
              <mxPoint x="260" y="330" />
            </Array>
          </mxGeometry>
        </mxCell>
        <mxCell id="crwWEDbHYnF9CgbV07Z6-15" value="" style="endArrow=ERzeroToMany;html=1;rounded=0;entryX=0.5;entryY=0;entryDx=0;entryDy=0;exitX=0.75;exitY=1;exitDx=0;exitDy=0;endFill=0;" parent="1" source="crwWEDbHYnF9CgbV07Z6-4" target="crwWEDbHYnF9CgbV07Z6-13" edge="1">
          <mxGeometry width="50" height="50" relative="1" as="geometry">
            <mxPoint x="380" y="270" as="sourcePoint" />
            <mxPoint x="430" y="220" as="targetPoint" />
            <Array as="points">
              <mxPoint x="560" y="330" />
            </Array>
          </mxGeometry>
        </mxCell>
        <mxCell id="crwWEDbHYnF9CgbV07Z6-18" value="" style="shape=partialRectangle;whiteSpace=wrap;html=1;top=0;bottom=0;fillColor=none;rotation=120;" parent="1" vertex="1">
          <mxGeometry x="352" y="260" width="10" height="28.62" as="geometry" />
        </mxCell>
        <mxCell id="crwWEDbHYnF9CgbV07Z6-19" value="" style="shape=partialRectangle;whiteSpace=wrap;html=1;top=0;bottom=0;fillColor=none;rotation=60;" parent="1" vertex="1">
          <mxGeometry x="460" y="260" width="10" height="28.62" as="geometry" />
        </mxCell>
        <mxCell id="crwWEDbHYnF9CgbV07Z6-22" value="Memiliki" style="text;html=1;align=center;verticalAlign=middle;whiteSpace=wrap;rounded=0;" parent="1" vertex="1">
          <mxGeometry x="240" y="320" width="60" height="30" as="geometry" />
        </mxCell>
        <mxCell id="crwWEDbHYnF9CgbV07Z6-23" value="Menghasilkan" style="text;html=1;align=center;verticalAlign=middle;whiteSpace=wrap;rounded=0;" parent="1" vertex="1">
          <mxGeometry x="530" y="320" width="60" height="30" as="geometry" />
        </mxCell>
        <mxCell id="crwWEDbHYnF9CgbV07Z6-26" value="Melakukan" style="text;html=1;align=center;verticalAlign=middle;whiteSpace=wrap;rounded=0;" parent="1" vertex="1">
          <mxGeometry x="380" y="130" width="60" height="30" as="geometry" />
        </mxCell>
        <mxCell id="0zhCNMD3LpNeYshN6w-t-2" style="edgeStyle=orthogonalEdgeStyle;rounded=0;orthogonalLoop=1;jettySize=auto;html=1;entryX=0.5;entryY=0;entryDx=0;entryDy=0;endArrow=ERzeroToMany;endFill=0;" edge="1" parent="1" source="crwWEDbHYnF9CgbV07Z6-27" target="0zhCNMD3LpNeYshN6w-t-1">
          <mxGeometry relative="1" as="geometry" />
        </mxCell>
        <mxCell id="crwWEDbHYnF9CgbV07Z6-27" value="Stok" style="rounded=0;whiteSpace=wrap;html=1;" parent="1" vertex="1">
          <mxGeometry x="200" y="540" width="120" height="60" as="geometry" />
        </mxCell>
        <mxCell id="crwWEDbHYnF9CgbV07Z6-29" value="" style="shape=partialRectangle;whiteSpace=wrap;html=1;top=0;bottom=0;fillColor=none;rotation=90;" parent="1" vertex="1">
          <mxGeometry x="255" y="460" width="10" height="28.62" as="geometry" />
        </mxCell>
        <mxCell id="crwWEDbHYnF9CgbV07Z6-30" value="Ditempatkan di" style="text;html=1;align=center;verticalAlign=middle;whiteSpace=wrap;rounded=0;" parent="1" vertex="1">
          <mxGeometry x="212.5" y="488.62" width="95" height="30" as="geometry" />
        </mxCell>
        <mxCell id="0zhCNMD3LpNeYshN6w-t-1" value="Supplier" style="rounded=0;whiteSpace=wrap;html=1;" vertex="1" parent="1">
          <mxGeometry x="200" y="680" width="120" height="60" as="geometry" />
        </mxCell>
        <mxCell id="0zhCNMD3LpNeYshN6w-t-3" value="" style="shape=partialRectangle;whiteSpace=wrap;html=1;top=0;bottom=0;fillColor=none;rotation=90;" vertex="1" parent="1">
          <mxGeometry x="255" y="610" width="10" height="28.62" as="geometry" />
        </mxCell>
        <mxCell id="0zhCNMD3LpNeYshN6w-t-4" value="Diperbarui oleh" style="text;html=1;align=center;verticalAlign=middle;whiteSpace=wrap;rounded=0;" vertex="1" parent="1">
          <mxGeometry x="215" y="630" width="90" height="30" as="geometry" />
        </mxCell>
      </root>
    </mxGraphModel>
  </diagram>
</mxfile>
